<svg id="레이어_1" data-name="레이어 1" xmlns="http://www.w3.org/2000/svg" xmlns:xlink="http://www.w3.org/1999/xlink" viewBox="0 0 1000 332.63"><defs><style>.cls-1{fill:url(#linear-gradient);}.cls-2{fill:url(#linear-gradient-2);}.cls-3{fill:url(#linear-gradient-3);}.cls-4{fill:url(#gold-text);}.cls-5{fill:url(#gold-sub);}.cls-6{fill:#d8c48a;}.cls-7{fill:none;stroke:url(#gold-line);stroke-width:1.1;opacity:.72}</style><linearGradient id="linear-gradient" x1="108.92" y1="236.41" x2="186.41" y2="37.13" gradientUnits="userSpaceOnUse"><stop offset="0.12" stop-color="#9a7b1a"/><stop offset="0.42" stop-color="#f3e6bc"/><stop offset="0.58" stop-color="#fff4d6"/><stop offset="0.72" stop-color="#e8d08a"/><stop offset="0.86" stop-color="#c9a227"/><stop offset="1" stop-color="#8a6d1f"/></linearGradient><linearGradient id="linear-gradient-2" x1="189.73" y1="156.71" x2="171.56" y2="306.14" gradientUnits="userSpaceOnUse"><stop offset="0.15" stop-color="#7a6118"/><stop offset="1" stop-color="#c9a227"/></linearGradient><linearGradient id="gold-text" x1="360" y1="72" x2="980" y2="210" gradientUnits="userSpaceOnUse"><stop offset="0" stop-color="#fff8e8"/><stop offset="0.28" stop-color="#f0dfa0"/><stop offset="0.55" stop-color="#e8d08a"/><stop offset="0.78" stop-color="#f5e8c8"/><stop offset="1" stop-color="#d4af37"/></linearGradient><linearGradient id="gold-sub" x1="380" y1="220" x2="990" y2="290" gradientUnits="userSpaceOnUse"><stop offset="0" stop-color="#f0e6c8"/><stop offset="1" stop-color="#c9a86a"/></linearGradient><linearGradient id="gold-line" x1="380" y1="0" x2="990" y2="0" gradientUnits="userSpaceOnUse"><stop offset="0" stop-color="#c9a227" stop-opacity="0"/><stop offset="0.2" stop-color="#e8d08a"/><stop offset="0.5" stop-color="#fff4d6"/><stop offset="0.8" stop-color="#e8d08a"/><stop offset="1" stop-color="#c9a227" stop-opacity="0"/></linearGradient><linearGradient id="linear-gradient-3" x1="299.63" y1="170.05" x2="281.47" y2="319.42" xlink:href="#linear-gradient-2"/><filter id="logo-glow" x="-8%" y="-8%" width="116%" height="116%"><feGaussianBlur stdDeviation="1.2" result="b"/><feMerge><feMergeNode in="b"/><feMergeNode in="SourceGraphic"/></feMerge></filter></defs><title>EVERM Footer Logo</title><line class="cls-7" x1="382" y1="214.5" x2="988" y2="214.5"/><path class="cls-1" d="M90.45,265.68a41.73,41.73,0,0,0,6.48-1.36,69,69,0,0,0,6.78-2.6,86.58,86.58,0,0,0,15.75-9.66A139.59,139.59,0,0,0,132,241c2.22-2.37,4.49-4.76,6.79-7.23s4.77-5.19,7.42-8.05a177,177,0,0,0,21.21-27.79c5.66-9.3,10.74-18.58,15.34-27.81,1.06-2.51,2.25-5,3.44-7.42s2.38-4.92,3.46-7.39q7.75-16.15,16.36-31.86a157.5,157.5,0,0,1,22.61-31,42.36,42.36,0,0,1,6.09-5.23,66,66,0,0,1,7.59-4.71,97.07,97.07,0,0,1,9.43-4.25A34.88,34.88,0,0,1,259,76.2a7.37,7.37,0,0,1,1.89,0c.47.12.74.31.78.62a.8.8,0,0,1-.16.71,2,2,0,0,1-.89.59c-1.14.95-3.32,2.48-6.51,4.6s-6.28,6.76-9.21,13.91a63.83,63.83,0,0,0-3.07,8.64,97.06,97.06,0,0,0-2.5,11.44c-.64,3.85-1.21,8-1.68,12.37s-1,8.84-1.34,13.28c-.69,11.32-1.06,26.24-1.15,44.86,1.44-2.19,2.81-4.43,4.15-6.63s2.68-4.45,4.14-6.69c.26-.46.55-1,.9-1.52s.61-1,.86-1.5c6.56-10.92,13.57-21.76,21.11-32.64a218.92,218.92,0,0,1,28-32.5c1.73-1.69,3.41-3.34,5.11-4.91A152,152,0,1,0,29.77,240.51a49.5,49.5,0,0,1-.14-5.15,77.19,77.19,0,0,1,.59-7.78,76.5,76.5,0,0,1,4.17-14.34,132.93,132.93,0,0,1,8.46-18A137.88,137.88,0,0,1,66.3,165.34a59.32,59.32,0,0,1,33.52-17c.31,0,.68-.08,1.07-.11s.71-.12,1-.16c12.59-1.54,21.67-.12,27.26,4.12s9,9.39,10.36,15.21a7.25,7.25,0,0,1,.45,1.73c.06.55.12,1.1.18,1.72a36,36,0,0,1,.17,7,30.24,30.24,0,0,1-1.15,6.22,22.82,22.82,0,0,1-.78,2.43c-.29.83-.62,1.65-1,2.52a60.28,60.28,0,0,1-5.29,9.16q-3.21,4.65-6.73,8.83a106.18,106.18,0,0,1-9.12,8.69c-2.85,2.39-5,3.69-6.4,3.84a2.2,2.2,0,0,1-1.06-.08.82.82,0,0,1-.43-.66l0-.24c-.21-.31.59-1.49,2.27-3.61a73.46,73.46,0,0,0,5.76-8.25,53.78,53.78,0,0,0,5.09-11.4,32.93,32.93,0,0,0,1.23-14.45,16.19,16.19,0,0,0-.35-1.85,12.34,12.34,0,0,1-.35-1.85,4.25,4.25,0,0,0-.23-.9,3.21,3.21,0,0,1-.22-.94q-3-10.74-11.17-15A30.33,30.33,0,0,0,93.3,157a30,30,0,0,0-7.79,2,29.12,29.12,0,0,0-6.89,3.81,33.68,33.68,0,0,0-2.89,2.36A36,36,0,0,0,72.88,168q-8.94,10.08-15.43,27.78A79.1,79.1,0,0,0,53,231.67a1.93,1.93,0,0,1,.06.51,2.47,2.47,0,0,1,.06.43c0,.31.08.66.12,1.06a2.36,2.36,0,0,0,.37,1c.07.48.09.9.17,1.25s.08.76.1,1.07c.27.94.51,1.8.68,2.63a11.48,11.48,0,0,0,.92,2.63A40.93,40.93,0,0,0,68,259.8Q76.94,267.33,90.45,265.68Z"/><path class="cls-2" d="M261.33,246.75q-7.09-8.13-8.69-20.94a49.72,49.72,0,0,1-.31-7.66,54.52,54.52,0,0,1,.78-8,40.5,40.5,0,0,1,.68-4,28.62,28.62,0,0,1,1.19-4,482.09,482.09,0,0,1,20-52.38q11.07-24.58,24.4-41.53.18-.3-23.39,27.46t-50.59,81.84a20.15,20.15,0,0,1-1.34,2.55c-.53.83-1.06,1.78-1.57,2.79a113.19,113.19,0,0,1-7.67,10.73,131,131,0,0,1-9,10.21,163.74,163.74,0,0,1-15.68,14.7c-4.9,3.88-8.12,6.05-9.66,6.36-.14,0-.3,0-.47.08s-.22,0-.24-.19l0-.24c-.09-.78.9-2.28,3-4.4s4.36-4.79,6.84-7.9a55.12,55.12,0,0,0,4.47-6.84l.64-1.22c15-26.75,16.58-46.2,18.08-55.9,2.07-13.55.53-21.06-.68-30.84a78.25,78.25,0,0,0-2.39-11.91,67.72,67.72,0,0,0-4.49-11.63q-16.49,43.38-31.9,70.14a276,276,0,0,1-32.68,45.49c-12.66,14.42-26.87,24-42.51,28.73a81.1,81.1,0,0,1-8.26,2.32c-2.61.54-5.17.93-7.63,1.25a62.57,62.57,0,0,1-18.34-.24,151.84,151.84,0,0,0,225.3-33.39c-3.92,3.06-7.73,5-11.4,5.54C271.6,254.49,266.13,252.17,261.33,246.75Z"/><path class="cls-3" d="M308.77,126.49c-1.38,3.38-2.63,6.71-3.74,9.94a130.66,130.66,0,0,1-6.6,16.58c-.39.71-.75,1.38-1.06,2s-.68,1.42-1,2.23c-1.88,4.06-3.71,8.38-5.49,13.13s-3.42,9.51-4.88,14.42a171.62,171.62,0,0,0-5.25,21c-1.23,6.73-1.56,12.3-1,16.66a13.07,13.07,0,0,0,1.74,5.58,4.44,4.44,0,0,0,3.71,2.24,2.13,2.13,0,0,1,.72.07,1.6,1.6,0,0,0,.7,0,3.71,3.71,0,0,0,.59-.07c.2,0,.41,0,.57,0a14.87,14.87,0,0,0,10.44-6.48,60.74,60.74,0,0,0,6.93-12.22c1.9-4.32,3.46-8.21,4.73-11.74a151.95,151.95,0,0,0-1.06-73.36Z"/><path class="cls-4" d="M511.13,98.63l33.43,76.77c.82,1.93,1.58,2.87,2.28,2.83s1.62-1.69,3.1-5l1.39-3.22,19.08-45.29c8.2-19.5,12.32-32,12.32-37.57,0-1.93-.43-3.26-1.31-4s-2.64-1.45-5.31-2c-3.26-.63-4.84-1.46-4.79-2.4s1-1.61,2.87-1.61c.43,0,1.27,0,2.54.08q6.45.34,7.77.35h3.56l3.94-.08h2.17l7.44-.12c1.13,0,1.73.52,1.73,1.54,0,.82-.6,1.45-1.83,1.88-4.16,1.57-7.34,4.91-9.47,10.1l-2.36,5.62L546.45,197.8Q544.64,202,543,202c-1.23,0-2.46-1.45-3.71-4.32L495.12,95.49c-2.09-4.68-4-8-5.66-9.82a11.67,11.67,0,0,0-6.86-3.58,29.57,29.57,0,0,1-5.33-1.26,1.35,1.35,0,0,1-.84-1.37c0-1.14.82-1.73,2.44-1.73.45,0,1.31.08,2.52.16,1,.15,3.91.19,8.77.19l8.28.08,5.82-.08c1.21,0,3.08-.11,5.58-.35,1.15-.11,2-.16,2.42-.16,1.58,0,2.36.51,2.36,1.62,0,.78-.58,1.41-1.75,1.88a14.68,14.68,0,0,0-4.47,2.2,4.43,4.43,0,0,0-.92,3.18C507.48,89,508.69,93,511.13,98.63Z"/><path class="cls-4" d="M460.21,123h3.49v29.16h-3.49c-1.29-5.15-2.89-8.33-4.71-9.63s-5.89-1.93-12.1-1.93H413.62V183.5c0,3,.65,5.11,2,6.32s3.58,1.85,6.8,1.85h21c7.5,0,12.71-.39,15.58-1.22a14.87,14.87,0,0,0,7.26-4.56c2-2.19,4.12-5.82,6.37-10.77H476l-5.52,22.37H384.16V194c5.39,0,9-1.38,10.84-4.14s2.73-7.69,2.73-14.68v-75c0-7.31-.92-12.3-2.83-15s-5.49-4.13-10.74-4.13V77.62h86.36v20h-2.23c-1.21-5.7-3-9.51-5.29-11.39s-7.24-2.79-14.88-2.79h-34.5v51.27H447.2c4.57,0,7.68-.79,9.38-2.44S459.47,127.6,460.21,123Z"/><path class="cls-4" d="M683.88,123h3.44v29.16h-3.44c-1.3-5.15-2.87-8.33-4.72-9.63s-5.86-1.93-12.07-1.93H637.28V183.5c0,3,.66,5.11,2,6.32s3.59,1.85,6.79,1.85h21c7.5,0,12.67-.39,15.52-1.22a15.19,15.19,0,0,0,7.29-4.56c2-2.19,4.06-5.82,6.36-10.77h3.46l-5.51,22.37H607.85V194c5.39,0,9-1.38,10.86-4.14s2.73-7.69,2.73-14.68v-75c0-7.31-1-12.3-2.85-15s-5.52-4.13-10.74-4.13V77.62h86.36v20H692c-1.23-5.7-3-9.51-5.27-11.39s-7.23-2.79-14.86-2.79H637.28v51.27h33.58c4.57,0,7.71-.79,9.41-2.44S683.14,127.6,683.88,123Z"/><path class="cls-4" d="M760.13,140.48a43.93,43.93,0,0,0,19.25-11q7.5-7.55,7.52-20c0-8.09-2.76-14.65-8.36-19.64s-12.85-7.5-22-7.5H744v92.64c0,7.11,1,12.06,3,14.85s5.54,4.17,10.68,4.17v3.58H714.54v-3.58c5.31,0,8.9-1.38,10.79-4.17s2.78-7.74,2.78-14.85V99.81c0-7.07-.9-12-2.74-14.66s-5.44-4.08-10.83-4.08V77.62h49.14q18.2,0,29.11,8.83A27.83,27.83,0,0,1,803.65,109q0,22.11-24.74,29.44A148.35,148.35,0,0,1,792.52,149c4.31,3.73,11.91,12.18,22.8,25.22,6.8,8.22,13,13.48,18.49,15.84s10.24,3.61,14.2,3.61v3.86c-10.9.31-18.78-.2-23.61-1.42-6.75-.79-14.95-5.94-24.62-15.32q-17-19.62-23.41-26.36A117.3,117.3,0,0,0,760.13,140.48Z"/><path class="cls-5" d="M951.51,77.62h28.31v3.45c-9,.24-13.47,5.54-13.47,16,0,.87,0,1.81.08,2.75l6.05,73.9c.68,7.86,2,13.08,4,15.72s5.64,4.12,10.88,4.6v3.46H944.27V194q6.86-1.12,9.68-4.52c1.89-2.29,2.81-5.7,2.81-10.42,0-.94,0-2-.1-3.14l-6.4-77.52-41.08,99.06H906L865.52,98.63l-6.75,73.75c-.08,1.13-.1,2.24-.1,3.26q0,15.5,15.6,18.39v3.46H837V194c5-.68,8.59-2.44,10.78-5.27s3.76-8.41,4.55-16.81l7.26-82.47a26.82,26.82,0,0,0-15.62-8.41V77.62h30.34L912.64,172Z"/><path class="cls-6" d="M386.83,275.55V274c2.29,0,3.83-.63,4.73-1.88s1.29-3.46,1.29-6.57V232.41c0-3.18-.43-5.38-1.29-6.64s-2.44-1.84-4.73-1.84v-1.58H411.4q13.67,0,21.81,7.78c5.46,5.15,8.18,11.71,8.18,19.73q0,11.72-7.75,18.73t-21.56,7ZM410,224.44H399.88v39.24c0,3.78.45,6.37,1.36,7.74s2.72,2.09,5.43,2.09h5.49c6.52,0,11.64-2.13,15.4-6.33s5.61-9.94,5.61-17.25q0-11.6-6.13-18.54T410,224.44Z"/><path class="cls-6" d="M482.72,242.51h1.56v12.92h-1.56c-.55-2.28-1.25-3.69-2.07-4.27s-2.6-.84-5.37-.84H462.06v19a3.8,3.8,0,0,0,.9,2.83,4.35,4.35,0,0,0,3,.83h9.31a27.14,27.14,0,0,0,6.91-.59,6.67,6.67,0,0,0,3.21-2,19.52,19.52,0,0,0,2.83-4.75h1.54l-2.46,9.9H449V274c2.4,0,4-.63,4.82-1.85s1.23-3.38,1.23-6.52V232.41c0-3.22-.46-5.46-1.28-6.68s-2.43-1.8-4.77-1.8v-1.58h38.31v8.92h-1c-.56-2.55-1.36-4.24-2.36-5.06s-3.22-1.26-6.6-1.26H462.06v22.79H477c2.05,0,3.42-.4,4.18-1.11A7.43,7.43,0,0,0,482.72,242.51Z"/><path class="cls-6" d="M535.48,223.93v-1.58h16v1.58c-2.54,0-4.32.58-5.32,1.8s-1.48,3.42-1.48,6.57v43.25h-1.66l-37.66-46.24v37.36c0,2.64.53,4.52,1.6,5.62s2.87,1.73,5.37,1.73v1.53H496.25V274c2.56,0,4.28-.71,5.21-2s1.35-3.7,1.35-7.08V233.79c0-3.39-.6-5.78-1.85-7.26s-3.21-2.33-6-2.6v-1.58h13.63L542,263.77V232.69c0-3.3-.45-5.54-1.39-6.84S538,223.93,535.48,223.93Z"/><path class="cls-6" d="M592.68,225H584.6v40.89c0,3.23.37,5.38,1.17,6.49s2.29,1.69,4.59,1.69v1.53H571.54V274c2.32,0,3.94-.63,4.76-1.93s1.27-3.45,1.27-6.52V225h-7.73c-3.71,0-6.38.59-8.08,1.77s-2.6,3.14-2.83,5.85H557.4V220.39h1.53c1.44,1.34,4.08,2,8,2h27.9c4,0,6.84-.62,8.42-2H605v12.18h-1c-.68-2.91-1.85-4.91-3.57-6S596.08,225,592.68,225Z"/><path class="cls-6" d="M634.33,275.55V274q4.54,0,4.55-3.19a5.72,5.72,0,0,0-.41-2L633.53,254h-17l-3.63,10.69a21.08,21.08,0,0,0-1.36,5.85c0,2.24,1.4,3.38,4.21,3.46v1.53H602V274a8.08,8.08,0,0,0,4.57-2c1.09-1,2.18-3.14,3.3-6.4l14.72-43.84H630l15.45,45.8c.88,2.68,1.85,4.44,2.81,5.23A7.63,7.63,0,0,0,653,274v1.53Zm-16.87-24.79h15l-7.54-22.55Z"/><path class="cls-6" d="M699.31,264h1.56l-3.26,11.59H659.07V274a5.34,5.34,0,0,0,4.66-2c.92-1.38,1.37-3.66,1.37-6.89V231.63c0-2.87-.43-4.87-1.31-6s-2.42-1.68-4.72-1.68v-1.58h19v1.58a5.24,5.24,0,0,0-4.56,2c-.9,1.3-1.37,3.42-1.37,6.41v35.55c0,2,.41,3.3,1.23,4s2.44,1.11,4.82,1.11h10.55c3.28,0,5.54-.59,6.87-1.74S698.16,267.69,699.31,264Z"/><path class="cls-6" d="M774.75,221.61v15.87h-1.54c-1.27-4.91-3.32-8.56-6.11-10.88s-6.54-3.5-11.17-3.5c-6.07,0-10.87,2.2-14.39,6.52s-5.33,10.18-5.33,17.4c0,8,1.89,14.38,5.62,19.22a17.54,17.54,0,0,0,14.67,7.27c8.35,0,14.54-3.89,18.51-11.67l1.42,1.3a21,21,0,0,1-8.63,10,25.07,25.07,0,0,1-13.57,3.69,27.06,27.06,0,0,1-13.37-3.38,23.75,23.75,0,0,1-9.45-9.35,27.62,27.62,0,0,1-3.34-13.71q0-12.74,7.81-21a25.86,25.86,0,0,1,19.68-8.33,47.2,47.2,0,0,1,10.13,1.41,23.81,23.81,0,0,0,4.75.83,2.87,2.87,0,0,0,2.85-1.69Z"/><path class="cls-6" d="M823.76,264h1.54L822,275.55H783.5V274a5.26,5.26,0,0,0,4.65-2c.91-1.38,1.38-3.66,1.38-6.89V231.63c0-2.87-.43-4.87-1.27-6s-2.44-1.68-4.76-1.68v-1.58h19v1.58a5.21,5.21,0,0,0-4.55,2c-.94,1.3-1.39,3.42-1.39,6.41v35.55c0,2,.43,3.3,1.27,4s2.42,1.11,4.78,1.11h10.57c3.28,0,5.58-.59,6.85-1.74S822.61,267.69,823.76,264Z"/><path class="cls-6" d="M847.56,222.35v1.58c-2.27,0-3.83.62-4.72,1.84s-1.29,3.46-1.29,6.64v33.16q0,4.77,1.29,6.6c.89,1.22,2.45,1.85,4.72,1.85v1.53H828.43V274c2.32,0,3.9-.59,4.76-1.81s1.29-3.42,1.29-6.64V232.41c0-3.26-.45-5.5-1.25-6.71s-2.44-1.77-4.8-1.77v-1.58Z"/><path class="cls-6" d="M892.39,223.93v-1.58h16.05v1.58c-2.58,0-4.36.58-5.35,1.8s-1.49,3.42-1.49,6.57v43.25H900L862.3,229.31v37.36c0,2.64.53,4.52,1.6,5.62s2.85,1.73,5.39,1.73v1.53H853.14V274c2.56,0,4.3-.71,5.2-2s1.36-3.7,1.36-7.08V233.79c0-3.39-.6-5.78-1.83-7.26s-3.24-2.33-6-2.6v-1.58h13.66l33.37,41.42V232.69c0-3.3-.43-5.54-1.35-6.84S894.87,223.93,892.39,223.93Z"/><path class="cls-6" d="M933.59,222.35v1.58c-2.27,0-3.83.62-4.73,1.84s-1.29,3.46-1.29,6.64v33.16q0,4.77,1.29,6.6c.9,1.22,2.46,1.85,4.73,1.85v1.53H914.47V274c2.34,0,3.89-.59,4.75-1.81s1.28-3.42,1.28-6.64V232.41c0-3.26-.41-5.5-1.26-6.71s-2.41-1.77-4.77-1.77v-1.58Z"/><path class="cls-6" d="M988.45,221.61v15.87h-1.56c-1.25-4.91-3.3-8.56-6.11-10.88s-6.52-3.5-11.17-3.5c-6.05,0-10.84,2.2-14.39,6.52s-5.33,10.18-5.33,17.4q0,12,5.64,19.22a17.52,17.52,0,0,0,14.63,7.27q12.58,0,18.56-11.67l1.39,1.3a21.11,21.11,0,0,1-8.61,10,25.14,25.14,0,0,1-13.59,3.69,26.93,26.93,0,0,1-13.35-3.38,23.72,23.72,0,0,1-9.49-9.35,27.82,27.82,0,0,1-3.32-13.71q0-12.74,7.79-21a25.9,25.9,0,0,1,19.7-8.33,46.57,46.57,0,0,1,10.13,1.41,24,24,0,0,0,4.75.83,2.9,2.9,0,0,0,2.87-1.69Z"/></svg>